<svg width="77" height="77" viewBox="0 0 77 77" fill="none" xmlns="http://www.w3.org/2000/svg">
<path d="M38.5 72.1875C29.5655 72.1875 20.997 68.6383 14.6793 62.3207C8.36171 56.003 4.8125 47.4345 4.8125 38.5C4.8125 29.5655 8.36171 20.997 14.6793 14.6793C20.997 8.36171 29.5655 4.8125 38.5 4.8125C47.4345 4.8125 56.003 8.36171 62.3207 14.6793C68.6383 20.997 72.1875 29.5655 72.1875 38.5C72.1875 47.4345 68.6383 56.003 62.3207 62.3207C56.003 68.6383 47.4345 72.1875 38.5 72.1875ZM38.5 77C48.7108 77 58.5035 72.9438 65.7236 65.7236C72.9438 58.5035 77 48.7108 77 38.5C77 28.2892 72.9438 18.4965 65.7236 11.2764C58.5035 4.05624 48.7108 0 38.5 0C28.2892 0 18.4965 4.05624 11.2764 11.2764C4.05624 18.4965 0 28.2892 0 38.5C0 48.7108 4.05624 58.5035 11.2764 65.7236C18.4965 72.9438 28.2892 77 38.5 77Z" fill="white"/>
<path d="M38.5 19.25C39.1382 19.25 39.7502 19.5035 40.2015 19.9548C40.6527 20.406 40.9062 21.0181 40.9062 21.6562V36.0938H55.3438C55.9819 36.0938 56.594 36.3473 57.0452 36.7985C57.4965 37.2498 57.75 37.8618 57.75 38.5C57.75 39.1382 57.4965 39.7502 57.0452 40.2015C56.594 40.6527 55.9819 40.9062 55.3438 40.9062H40.9062V55.3438C40.9062 55.9819 40.6527 56.594 40.2015 57.0452C39.7502 57.4965 39.1382 57.75 38.5 57.75C37.8618 57.75 37.2498 57.4965 36.7985 57.0452C36.3473 56.594 36.0938 55.9819 36.0938 55.3438V40.9062H21.6562C21.0181 40.9062 20.406 40.6527 19.9548 40.2015C19.5035 39.7502 19.25 39.1382 19.25 38.5C19.25 37.8618 19.5035 37.2498 19.9548 36.7985C20.406 36.3473 21.0181 36.0938 21.6562 36.0938H36.0938V21.6562C36.0938 21.0181 36.3473 20.406 36.7985 19.9548C37.2498 19.5035 37.8618 19.25 38.5 19.25Z" fill="white"/>
</svg>
