<svg width="85" height="85" viewBox="0 0 85 85" fill="none" xmlns="http://www.w3.org/2000/svg">
<path d="M2 79.1916V5C2 3.34315 3.34315 2 5 2H79.4341C81.091 2 82.4341 3.34314 82.4341 5V15.523C82.4341 17.1799 81.091 18.523 79.4341 18.523H19.6804C18.0235 18.523 16.6804 19.8661 16.6804 21.523V25.4725C16.6804 27.1294 18.0235 28.4725 19.6804 28.4725H56C57.6569 28.4725 59 29.8157 59 31.4725V39.5602C59 41.2171 57.6569 42.5602 56 42.5602H18.926C17.2692 42.5602 15.926 43.9034 15.926 45.5602V79.1916C15.926 80.8485 14.5829 82.1916 12.926 82.1916H5C3.34315 82.1916 2 80.8485 2 79.1916Z" fill="black" stroke="black" stroke-opacity="0.5" stroke-width="3"/>
<path d="M79.515 28.5H73.5C71.8431 28.5 70.5 29.8431 70.5 31.5V68C70.5 69.6569 69.1569 71 67.5 71H42C40.3431 71 39 72.3431 39 74V79.6766C39 81.3335 40.3431 82.6766 42 82.6766H79.515C81.1718 82.6766 82.515 81.3335 82.515 79.6766V31.5C82.515 29.8431 81.1718 28.5 79.515 28.5Z" fill="#F0F4F9" stroke="white" stroke-opacity="0.5" stroke-width="3"/>
</svg>
